<svg xmlns="http://www.w3.org/2000/svg" xmlns:xlink="http://www.w3.org/1999/xlink" width="1080" zoomAndPan="magnify" viewBox="0 0 810 809.999993" height="1080" preserveAspectRatio="xMidYMid meet" version="1.0"><defs><g/><clipPath id="3f3c4c91ec"><path d="M 405 0 C 181.324219 0 0 181.324219 0 405 C 0 628.675781 181.324219 810 405 810 C 628.675781 810 810 628.675781 810 405 C 810 181.324219 628.675781 0 405 0 Z M 405 0 " clip-rule="nonzero"/></clipPath></defs><g clip-path="url(#3f3c4c91ec)"><rect x="-81" width="972" fill="#ffffff" y="-80.999999" height="971.999992" fill-opacity="1"/><path stroke-linecap="butt" transform="matrix(0.75, 0, 0, 0.75, 0.0000035, 0.00002)" fill="none" stroke-linejoin="miter" d="M 540.000023 -0.0000266667 C 241.765632 -0.0000266667 -0.00000466667 241.76561 -0.00000466667 540.000001 C -0.00000466667 838.234391 241.765632 1080.000028 540.000023 1080.000028 C 838.234413 1080.000028 1080.00005 838.234391 1080.00005 540.000001 C 1080.00005 241.76561 838.234413 -0.0000266667 540.000023 -0.0000266667 Z M 540.000023 -0.0000266667 " stroke="#000000" stroke-width="10" stroke-opacity="1" stroke-miterlimit="4"/></g><path fill="#000000" d="M 647.40625 211.316406 C 631.175781 237.113281 631.300781 265.296875 614.4375 305.5625 C 602.109375 304.304688 589.777344 303.800781 577.445312 304.304688 C 579.332031 294.617188 580.214844 284.800781 580.089844 274.984375 C 579.710938 255.609375 577.699219 236.230469 574.046875 217.230469 C 598.207031 212.574219 622.742188 210.5625 647.40625 211.316406 Z M 568.511719 278.636719 C 568.511719 287.441406 567.757812 296.25 566.121094 304.933594 C 533.027344 307.574219 501.195312 318.898438 473.765625 337.648438 C 497.292969 312.105469 510.378906 278.636719 510.503906 243.90625 C 510.503906 242.773438 510.503906 241.769531 510.378906 240.636719 C 526.359375 231.324219 543.472656 224.402344 561.339844 220 C 565.367188 239.378906 567.757812 259.007812 568.511719 278.636719 Z M 458.917969 353.628906 C 489.367188 330.097656 525.980469 316.257812 564.359375 313.488281 C 553.414062 354.382812 523.339844 370.742188 499.558594 370.742188 C 484.207031 370.742188 469.613281 364.574219 458.917969 353.628906 Z M 502.199219 254.476562 C 502.199219 297.507812 478.042969 329.09375 456.777344 349.476562 C 453.757812 342.429688 452.246094 335.003906 452.375 327.332031 C 452.375 301.410156 467.472656 269.828125 501.949219 246.171875 C 502.199219 248.941406 502.199219 251.707031 502.199219 254.476562 Z M 447.71875 326.070312 C 447.71875 332.363281 448.722656 338.65625 450.863281 344.570312 C 444.824219 332.992188 441.679688 320.03125 441.679688 306.945312 C 441.679688 264.289062 460.929688 224.402344 486.722656 192.066406 C 493.894531 206.285156 498.679688 221.507812 501.070312 237.113281 C 467.976562 259.382812 447.71875 290.464844 447.71875 326.070312 Z M 466.96875 364.449219 C 476.65625 371.117188 488.234375 374.765625 499.9375 375.019531 C 537.054688 375.019531 564.863281 352.117188 575.433594 312.859375 C 587.132812 312.484375 598.960938 312.984375 610.664062 314.246094 C 610.664062 314.371094 610.539062 314.371094 610.539062 314.371094 C 590.152344 358.535156 552.027344 381.9375 514.53125 381.9375 C 497.042969 382.695312 479.929688 376.402344 466.96875 364.449219 Z M 561.96875 128.019531 C 553.035156 155.199219 555.675781 183.382812 559.957031 210.6875 C 542.464844 215.46875 525.730469 222.390625 510.003906 231.449219 C 508.242188 214.085938 503.460938 197.097656 495.910156 181.246094 C 514.785156 159.980469 537.179688 141.859375 561.96875 128.019531 Z M 440.921875 93.542969 C 449.355469 130.410156 468.226562 156.582031 482.824219 184.265625 C 462.0625 209.933594 447.59375 240.132812 440.921875 272.46875 L 441.679688 272.46875 L 441.679688 93.542969 Z M 469.613281 370.742188 C 483.328125 381.308594 500.0625 386.972656 517.300781 386.972656 C 558.320312 386.972656 598.710938 363.441406 622.617188 315.753906 C 642.625 318.898438 662.378906 324.058594 681.253906 331.230469 C 638.597656 342.554688 592.167969 394.144531 533.785156 394.144531 C 506.980469 394.144531 485.339844 385.210938 471.121094 371.746094 Z M 435.890625 313.363281 C 443.441406 358.660156 478.796875 400.8125 539.824219 400.8125 C 610.285156 400.8125 670.304688 335.257812 710.824219 333.496094 C 713.84375 333.371094 713.84375 331.984375 711.453125 331.105469 C 684.273438 319.78125 655.960938 311.726562 626.894531 307.199219 C 644.511719 267.3125 644.890625 232.582031 661.875 205.402344 C 663.386719 203.011719 663.132812 202.257812 660.367188 202.007812 C 631.046875 199.488281 601.480469 201.378906 572.664062 207.667969 C 567.757812 176.839844 564.109375 146.640625 575.9375 112.039062 C 576.816406 109.398438 576.3125 108.140625 573.546875 109.398438 C 542.589844 125.378906 515.035156 147.144531 492.132812 173.316406 C 472.882812 134.816406 444.824219 99.332031 437.148438 44.34375 C 436.644531 40.949219 434.882812 41.199219 434.882812 44.34375 L 434.882812 295.117188 C 434.882812 317.136719 419.53125 327.332031 404.9375 327.332031 C 390.339844 327.332031 374.988281 317.011719 374.988281 295.117188 L 374.988281 44.46875 C 374.988281 41.324219 373.226562 41.074219 372.726562 44.46875 C 365.050781 99.332031 336.988281 134.941406 317.863281 173.316406 C 294.964844 147.019531 267.28125 125.378906 236.453125 109.398438 C 233.8125 108.140625 233.183594 109.273438 234.0625 112.039062 C 246.015625 146.769531 242.367188 176.839844 237.335938 207.667969 C 208.519531 201.378906 178.949219 199.488281 149.632812 202.007812 C 146.992188 202.257812 146.738281 203.011719 148.125 205.402344 C 165.109375 232.582031 165.613281 267.3125 183.101562 307.199219 C 154.035156 311.726562 125.601562 319.78125 98.546875 331.105469 C 96.15625 332.113281 96.15625 333.496094 99.175781 333.496094 C 139.566406 335.132812 199.710938 400.8125 270.175781 400.8125 C 331.328125 400.8125 366.558594 358.660156 374.109375 313.363281 L 372.851562 313.613281 C 377.757812 324.6875 388.328125 332.113281 400.40625 332.992188 L 400.53125 332.238281 C 383.921875 334 370.585938 346.582031 370.585938 362.6875 C 370.585938 388.355469 395.75 396.660156 403.175781 416.039062 C 403.679688 417.296875 403.929688 418.679688 405.0625 418.679688 C 406.195312 418.679688 406.320312 417.421875 406.949219 416.039062 C 414.5 396.660156 439.539062 388.355469 439.539062 362.6875 C 438.785156 346.332031 425.824219 333.117188 409.59375 332.238281 L 409.71875 332.992188 C 421.796875 332.113281 432.367188 324.6875 437.273438 313.613281 Z M 235.949219 217.355469 C 232.300781 236.355469 230.289062 255.734375 229.910156 275.113281 C 229.910156 284.925781 230.792969 294.742188 232.554688 304.429688 C 220.222656 303.925781 207.890625 304.304688 195.558594 305.6875 C 178.699219 265.421875 178.824219 237.238281 162.59375 211.445312 C 187.128906 210.5625 211.664062 212.574219 235.949219 217.355469 Z M 248.53125 220.125 C 266.402344 224.53125 283.511719 231.574219 299.492188 240.761719 C 299.492188 241.894531 299.367188 242.898438 299.367188 244.03125 C 299.367188 278.761719 312.578125 312.230469 336.109375 337.773438 C 308.679688 319.027344 276.84375 307.703125 243.75 305.058594 C 242.117188 296.375 241.359375 287.570312 241.359375 278.761719 C 242.242188 259.007812 244.632812 239.503906 248.53125 220.125 Z M 310.441406 370.867188 C 286.660156 370.867188 256.585938 354.382812 245.640625 313.613281 C 284.015625 316.257812 320.632812 330.222656 351.082031 353.753906 C 340.386719 364.574219 325.792969 370.742188 310.441406 370.867188 Z M 308.050781 246.296875 C 342.527344 269.953125 357.625 301.535156 357.625 327.457031 C 357.75 335.003906 356.242188 342.554688 353.222656 349.601562 C 331.957031 329.21875 307.796875 297.636719 307.796875 254.601562 C 307.796875 251.707031 307.796875 248.941406 308.050781 246.296875 Z M 308.929688 237.238281 C 311.195312 221.507812 316.101562 206.285156 323.273438 192.191406 C 349.070312 224.402344 368.320312 264.417969 368.320312 307.070312 C 368.320312 320.15625 365.175781 332.992188 359.136719 344.695312 C 361.273438 338.78125 362.28125 332.488281 362.28125 326.199219 C 362.28125 290.464844 342.023438 259.382812 308.929688 237.238281 Z M 295.464844 381.9375 C 257.96875 381.9375 219.84375 358.535156 199.460938 314.371094 C 199.460938 314.246094 199.335938 314.246094 199.335938 314.246094 C 211.035156 312.984375 222.738281 312.484375 234.566406 312.859375 C 245.136719 352.117188 272.945312 375.019531 310.0625 375.019531 C 321.890625 374.894531 333.339844 371.242188 343.03125 364.449219 C 330.195312 376.402344 312.957031 382.695312 295.464844 381.9375 Z M 314.089844 181.246094 C 306.539062 197.097656 301.757812 214.085938 299.996094 231.449219 C 284.269531 222.390625 267.53125 215.46875 250.042969 210.6875 C 254.320312 183.257812 256.964844 155.199219 248.03125 128.019531 C 272.945312 141.988281 295.214844 159.980469 314.089844 181.246094 Z M 368.195312 93.542969 L 368.195312 272.46875 L 368.949219 272.46875 C 362.28125 240.132812 347.9375 209.933594 327.050781 184.265625 C 341.644531 156.457031 360.519531 130.410156 368.949219 93.542969 Z M 338.878906 371.621094 C 324.660156 385.085938 303.015625 394.019531 276.214844 394.019531 C 217.832031 394.019531 171.402344 342.429688 128.746094 331.230469 C 147.746094 324.058594 167.375 318.898438 187.382812 315.753906 C 211.289062 363.441406 251.679688 386.972656 292.699219 386.972656 C 309.9375 386.972656 326.796875 381.183594 340.386719 370.742188 Z M 338.878906 371.621094 " fill-opacity="1" fill-rule="nonzero"/><path fill="#000000" d="M 270.21875 485.882812 C 269.085938 486.011719 268.582031 485.882812 268.332031 485.128906 C 267.074219 478.335938 261.160156 473.425781 254.367188 473.425781 C 248.453125 472.671875 243.167969 476.949219 242.410156 482.738281 C 242.410156 482.988281 242.410156 483.367188 242.285156 483.617188 C 242.285156 491.167969 248.578125 494.441406 256.882812 497.082031 C 268.835938 500.984375 276.636719 505.890625 276.636719 517.464844 C 276.636719 529.042969 267.578125 537.222656 251.972656 537.222656 C 246.0625 537.472656 240.019531 536.214844 234.609375 533.824219 C 233.351562 533.320312 232.472656 532.3125 232.09375 531.183594 C 230.710938 527.03125 229.953125 522.625 230.082031 518.222656 C 230.082031 517.464844 230.835938 517.214844 231.714844 517.089844 C 232.597656 516.964844 233.226562 517.214844 233.351562 517.84375 C 235.867188 524.511719 241.152344 533.445312 251.722656 533.445312 C 260.027344 533.445312 265.3125 528.539062 265.3125 521.871094 C 265.3125 516.207031 263.300781 511.554688 252.226562 507.902344 C 241.152344 504.253906 231.96875 498.464844 231.96875 487.269531 C 231.96875 477.578125 239.894531 469.273438 255.496094 469.273438 C 259.777344 469.402344 264.054688 469.902344 268.332031 470.910156 C 269.84375 471.289062 269.96875 471.539062 270.34375 472.546875 C 271.476562 476.445312 271.980469 480.472656 271.980469 484.5 C 271.855469 485.378906 271.351562 485.757812 270.21875 485.882812 Z M 270.21875 485.882812 " fill-opacity="1" fill-rule="nonzero"/><path fill="#000000" d="M 448.769531 518.472656 C 449.648438 518.597656 450.152344 518.976562 450.027344 519.480469 C 449.523438 524.136719 448.140625 528.792969 446.125 532.945312 C 445.75 533.699219 445.121094 534.203125 444.238281 534.453125 C 438.449219 536.464844 432.410156 537.472656 426.246094 537.597656 C 404.476562 537.597656 387.742188 526.652344 387.742188 503.5 C 387.742188 480.976562 405.484375 469.148438 425.992188 469.148438 C 432.664062 469.273438 439.207031 470.28125 445.621094 471.792969 C 446.882812 472.042969 447.007812 472.292969 447.132812 473.425781 C 447.257812 476.195312 447.511719 481.101562 448.390625 487.015625 C 448.515625 487.644531 448.140625 487.898438 447.132812 488.148438 C 446 488.273438 445.496094 488.148438 445.371094 487.519531 C 443.609375 478.585938 435.429688 472.421875 426.371094 473.175781 C 413.914062 473.175781 401.332031 481.984375 401.332031 502.117188 C 401.332031 523.003906 414.417969 533.320312 427.125 533.320312 C 436.3125 533.445312 444.492188 527.53125 447.382812 518.851562 C 447.382812 518.472656 447.886719 518.347656 448.769531 518.472656 Z M 448.769531 518.472656 " fill-opacity="1" fill-rule="nonzero"/><path fill="#000000" d="M 474.058594 503.625 C 474.4375 484.375 490.164062 469.023438 509.417969 469.402344 C 528.164062 469.652344 543.390625 484.878906 543.640625 503.625 C 543.140625 522.878906 527.03125 537.976562 507.78125 537.472656 C 489.410156 536.96875 474.5625 522.121094 474.058594 503.625 Z M 508.914062 533.320312 C 520.742188 533.320312 530.179688 520.613281 530.179688 503.625 C 530.179688 487.898438 522.503906 473.679688 508.914062 473.679688 C 495.324219 473.679688 487.648438 488.023438 487.648438 503.625 C 487.523438 520.613281 496.960938 533.320312 508.914062 533.320312 Z M 508.914062 533.320312 " fill-opacity="1" fill-rule="nonzero"/><path fill="#000000" d="M 180.378906 503.5 L 180.378906 521.746094 C 180.378906 532.1875 179.5 532.441406 174.84375 533.070312 L 172.703125 533.320312 C 172.074219 533.445312 171.949219 534.074219 171.949219 534.832031 C 172.074219 535.585938 172.199219 536.214844 172.828125 536.089844 C 172.828125 536.089844 181.386719 535.835938 186.042969 535.835938 C 190.695312 535.835938 199.253906 536.089844 199.253906 536.089844 C 199.882812 536.089844 200.132812 535.585938 200.132812 534.832031 C 200.257812 534.074219 200.007812 533.320312 199.378906 533.320312 L 197.238281 533.070312 C 192.585938 532.441406 191.703125 532.1875 191.703125 521.746094 L 191.703125 485.253906 C 191.703125 474.8125 192.585938 474.558594 197.238281 473.929688 L 199.378906 473.679688 C 200.007812 473.554688 200.132812 472.921875 200.132812 472.167969 C 200.132812 471.414062 199.882812 470.910156 199.253906 470.910156 C 199.253906 470.910156 190.695312 471.164062 186.042969 471.164062 C 181.386719 471.164062 172.828125 470.910156 172.828125 470.910156 C 172.199219 470.910156 171.949219 471.414062 171.949219 472.167969 C 171.824219 472.921875 172.074219 473.679688 172.703125 473.679688 L 174.84375 473.929688 C 179.5 474.558594 180.378906 474.8125 180.378906 485.253906 Z M 180.378906 503.5 " fill-opacity="1" fill-rule="nonzero"/><path fill="#000000" d="M 348.484375 530.550781 C 349.617188 532.0625 348.734375 532.816406 347.476562 533.070312 L 344.960938 533.445312 C 344.332031 533.574219 344.207031 534.074219 344.332031 534.957031 C 344.457031 535.835938 344.710938 536.339844 345.210938 536.214844 C 345.210938 536.214844 353.515625 535.964844 358.046875 535.964844 C 362.703125 535.964844 371.007812 536.214844 371.007812 536.214844 C 371.636719 536.214844 371.886719 535.835938 372.015625 534.832031 C 372.140625 533.824219 371.761719 533.320312 371.257812 533.320312 C 367.230469 533.445312 363.457031 531.683594 361.066406 528.539062 C 354.777344 521.492188 342.320312 505.511719 337.285156 498.84375 C 336.65625 498.214844 336.65625 497.082031 337.285156 496.453125 C 337.285156 496.453125 337.410156 496.328125 337.410156 496.328125 C 340.179688 493.308594 349.238281 484.121094 353.265625 480.472656 C 357.292969 476.445312 362.578125 474.054688 368.238281 473.554688 C 368.742188 473.425781 369.121094 472.796875 368.992188 471.917969 C 368.867188 471.164062 368.617188 470.660156 367.988281 470.785156 C 367.988281 470.785156 360.941406 471.035156 357.167969 471.035156 C 353.390625 471.035156 346.34375 470.785156 346.34375 470.785156 C 345.714844 470.785156 345.464844 471.414062 345.464844 472.042969 C 345.339844 472.921875 345.589844 473.425781 346.09375 473.554688 L 348.734375 474.308594 C 349.238281 474.433594 349.617188 474.683594 349.617188 475.1875 C 349.742188 476.320312 347.601562 478.710938 344.835938 481.859375 C 340.933594 486.261719 334.140625 493.433594 330.492188 496.957031 C 327.472656 499.851562 326.210938 500.355469 325.082031 499.726562 C 324.199219 499.347656 323.820312 498.339844 323.820312 495.320312 L 323.820312 485.003906 C 323.820312 474.558594 324.703125 474.308594 329.359375 473.679688 L 331.496094 473.425781 C 332.125 473.300781 332.253906 472.671875 332.253906 471.917969 C 332.125 471.164062 332 470.660156 331.371094 470.660156 C 331.371094 470.660156 322.816406 470.910156 318.160156 470.910156 C 313.503906 470.910156 304.949219 470.660156 304.949219 470.660156 C 304.320312 470.660156 304.066406 471.164062 304.066406 471.917969 C 303.941406 472.671875 304.191406 473.425781 304.820312 473.425781 L 306.960938 473.679688 C 311.617188 474.308594 312.496094 474.558594 312.496094 485.003906 L 312.496094 521.492188 C 312.496094 531.9375 311.617188 532.1875 306.960938 532.816406 L 304.820312 533.070312 C 304.191406 533.195312 304.066406 533.824219 304.066406 534.578125 C 304.066406 535.335938 304.320312 535.964844 304.949219 535.835938 C 304.949219 535.835938 313.503906 535.585938 318.160156 535.585938 C 322.816406 535.585938 331.371094 535.835938 331.371094 535.835938 C 332 535.835938 332.253906 535.335938 332.253906 534.578125 C 332.378906 533.824219 332.125 533.070312 331.496094 533.070312 L 329.359375 532.816406 C 324.703125 532.1875 323.820312 531.9375 323.820312 521.492188 L 323.820312 506.898438 C 323.820312 505.261719 324.449219 504.253906 325.457031 504.003906 C 326.589844 503.75 327.472656 504.253906 328.601562 505.511719 C 334.015625 511.425781 344.207031 524.765625 348.484375 530.550781 Z M 348.484375 530.550781 " fill-opacity="1" fill-rule="nonzero"/><path fill="#000000" d="M 579.878906 484.625 C 592.335938 497.460938 611.589844 519.730469 626.183594 537.222656 C 626.8125 537.976562 627.441406 538.101562 628.703125 537.597656 C 629.832031 537.09375 629.960938 536.71875 629.960938 535.835938 C 629.707031 530.929688 629.582031 526.273438 629.582031 521.871094 L 629.582031 488.527344 C 629.582031 476.949219 630.464844 474.683594 635.117188 474.054688 L 637.257812 473.804688 C 637.886719 473.679688 638.011719 473.050781 638.011719 472.292969 C 638.011719 471.539062 637.761719 470.910156 637.132812 471.035156 C 633.355469 471.289062 629.707031 471.289062 627.191406 471.289062 C 624.550781 471.289062 619.894531 471.164062 616.117188 471.035156 C 615.488281 471.035156 615.238281 471.539062 615.238281 472.292969 C 615.113281 473.050781 615.488281 473.804688 615.992188 473.804688 C 623.792969 474.183594 624.800781 475.816406 624.800781 488.527344 L 624.800781 519.226562 L 625.554688 518.472656 C 611.210938 503.878906 597.875 488.527344 585.417969 472.292969 C 584.789062 471.414062 584.660156 471.035156 583.53125 471.164062 C 577.867188 471.414062 572.203125 471.414062 566.542969 471.035156 C 565.914062 470.910156 565.660156 471.539062 565.660156 472.292969 C 565.535156 473.050781 565.789062 473.679688 566.417969 473.804688 C 573.964844 475.316406 576.105469 477.578125 576.105469 485.378906 L 576.105469 518.726562 C 576.105469 530.300781 575.226562 532.566406 570.570312 533.195312 L 568.429688 533.445312 C 567.800781 533.574219 567.675781 534.203125 567.675781 534.957031 C 567.675781 535.710938 567.925781 536.339844 568.554688 536.214844 C 572.332031 535.964844 575.980469 535.964844 578.496094 535.964844 C 581.140625 535.964844 584.660156 536.089844 588.4375 536.214844 C 589.066406 536.214844 589.316406 535.710938 589.316406 534.957031 C 589.441406 534.203125 589.191406 533.445312 588.5625 533.445312 L 586.421875 533.195312 C 581.769531 532.566406 580.886719 530.300781 580.886719 518.726562 L 580.886719 484.121094 Z M 579.878906 484.625 " fill-opacity="1" fill-rule="nonzero"/><path fill="#000000" d="M 637.375 451.339844 C 638.507812 451.339844 639.386719 450.082031 639.386719 448.066406 C 639.386719 446.054688 638.507812 444.796875 637.375 444.796875 L 172.695312 444.796875 C 171.5625 444.796875 170.679688 446.054688 170.679688 448.066406 C 170.679688 450.082031 171.5625 451.339844 172.695312 451.339844 Z M 637.375 451.339844 " fill-opacity="1" fill-rule="nonzero"/><path fill="#000000" d="M 637.375 562.191406 C 638.507812 562.191406 639.386719 560.933594 639.386719 558.921875 C 639.386719 556.910156 638.507812 555.648438 637.375 555.648438 L 172.695312 555.648438 C 171.5625 555.648438 170.679688 556.910156 170.679688 558.921875 C 170.679688 560.933594 171.5625 562.191406 172.695312 562.191406 Z M 637.375 562.191406 " fill-opacity="1" fill-rule="nonzero"/><path fill="#000000" d="M 679.617188 426.363281 C 679.746094 433.914062 673.832031 440.082031 666.28125 440.207031 C 658.730469 440.332031 652.566406 434.417969 652.441406 426.867188 C 652.3125 419.320312 658.226562 413.152344 665.777344 413.027344 C 665.902344 413.027344 666.03125 413.027344 666.03125 413.027344 C 673.453125 413.027344 679.617188 418.941406 679.617188 426.363281 Z M 655.710938 426.363281 C 656.089844 432.027344 660.871094 436.429688 666.660156 436.179688 C 672.320312 435.800781 676.726562 431.019531 676.472656 425.234375 C 676.222656 419.695312 671.691406 415.417969 666.15625 415.417969 C 660.242188 415.667969 655.585938 420.453125 655.710938 426.363281 Z M 661.625 423.34375 C 661.625 421.960938 661.375 421.332031 660.492188 421.207031 L 660.117188 421.207031 C 659.863281 420.828125 659.863281 420.199219 660.242188 420.074219 C 662.378906 419.949219 664.269531 419.820312 666.03125 419.820312 C 668.421875 419.820312 671.3125 420.324219 671.3125 423.34375 C 671.3125 424.605469 670.558594 425.734375 669.425781 426.238281 C 669.175781 426.363281 669.175781 426.492188 669.425781 426.996094 C 670.054688 428.503906 670.9375 430.015625 672.070312 431.148438 C 672.445312 431.398438 672.699219 431.648438 672.949219 431.777344 C 673.203125 431.777344 673.203125 432.40625 672.949219 432.53125 C 672.445312 432.53125 671.941406 432.65625 671.441406 432.65625 C 669.804688 432.78125 668.292969 431.902344 667.539062 430.515625 L 666.03125 427.875 C 665.902344 427.496094 665.527344 427.246094 665.148438 427.246094 C 664.644531 427.246094 664.519531 427.496094 664.519531 427.75 L 664.519531 429.257812 C 664.519531 430.769531 664.519531 431.273438 666.03125 431.398438 L 666.28125 431.523438 C 666.53125 431.648438 666.53125 432.40625 666.28125 432.53125 C 665.273438 432.53125 664.394531 432.40625 663.136719 432.40625 C 662.003906 432.40625 660.996094 432.53125 660.117188 432.53125 C 659.863281 432.40625 659.863281 431.648438 659.988281 431.523438 L 660.367188 431.398438 C 661.5 431.148438 661.5 430.894531 661.5 429.257812 Z M 664.519531 425.359375 C 664.519531 426.113281 664.644531 426.113281 665.777344 426.113281 C 666.910156 426.238281 667.789062 425.359375 667.917969 424.351562 C 667.917969 424.226562 667.917969 424.101562 667.917969 424.101562 C 667.917969 422.464844 667.160156 421.457031 665.902344 421.457031 C 664.644531 421.457031 664.519531 421.710938 664.519531 422.214844 Z M 664.519531 425.359375 " fill-opacity="1" fill-rule="nonzero"/><g fill="#000000" fill-opacity="1"><g transform="translate(105.798828, 644.083644)"><g><path d="M 24.640625 -42.3125 C 21.597656 -42.3125 18.925781 -41.5625 16.625 -40.0625 C 14.332031 -38.570312 12.546875 -36.425781 11.265625 -33.625 C 9.992188 -30.832031 9.359375 -27.554688 9.359375 -23.796875 C 9.359375 -17.335938 10.664062 -12.484375 13.28125 -9.234375 C 15.90625 -5.984375 19.734375 -4.359375 24.765625 -4.359375 C 28.140625 -4.359375 31.039062 -5.492188 33.46875 -7.765625 C 35.894531 -10.046875 37.457031 -13.175781 38.15625 -17.15625 L 44.265625 -17.15625 C 43.742188 -13.34375 42.550781 -10.050781 40.6875 -7.28125 C 38.820312 -4.507812 36.445312 -2.394531 33.5625 -0.9375 C 30.6875 0.507812 27.492188 1.234375 23.984375 1.234375 C 19.785156 1.234375 16.09375 0.257812 12.90625 -1.6875 C 9.71875 -3.632812 7.242188 -6.472656 5.484375 -10.203125 C 3.734375 -13.929688 2.859375 -18.375 2.859375 -23.53125 C 2.859375 -28.382812 3.742188 -32.648438 5.515625 -36.328125 C 7.296875 -40.015625 9.832031 -42.863281 13.125 -44.875 C 16.414062 -46.894531 20.253906 -47.90625 24.640625 -47.90625 C 28.054688 -47.90625 31.140625 -47.273438 33.890625 -46.015625 C 36.648438 -44.765625 38.894531 -42.988281 40.625 -40.6875 C 42.351562 -38.394531 43.414062 -35.707031 43.8125 -32.625 L 37.703125 -32.625 C 37.046875 -35.75 35.59375 -38.144531 33.34375 -39.8125 C 31.09375 -41.476562 28.191406 -42.3125 24.640625 -42.3125 Z M 24.640625 -42.3125 "/></g></g></g><g fill="#000000" fill-opacity="1"><g transform="translate(155.973231, 644.083644)"><g><path d="M 43.8125 -24.109375 C 43.8125 -19.515625 43.050781 -15.382812 41.53125 -11.71875 C 40.019531 -8.0625 37.800781 -5.191406 34.875 -3.109375 C 31.945312 -1.035156 28.40625 0 24.25 0 L 5.265625 0 L 5.265625 -46.671875 L 24.3125 -46.671875 C 27.988281 -46.671875 31.300781 -45.789062 34.25 -44.03125 C 37.195312 -42.28125 39.523438 -39.703125 41.234375 -36.296875 C 42.953125 -32.898438 43.8125 -28.835938 43.8125 -24.109375 Z M 23.984375 -5.390625 C 26.585938 -5.390625 28.894531 -6.070312 30.90625 -7.4375 C 32.925781 -8.800781 34.5 -10.847656 35.625 -13.578125 C 36.75 -16.316406 37.3125 -19.65625 37.3125 -23.59375 C 37.3125 -29.445312 36.0625 -33.859375 33.5625 -36.828125 C 31.070312 -39.796875 27.6875 -41.28125 23.40625 -41.28125 L 11.5625 -41.28125 L 11.5625 -5.390625 Z M 23.984375 -5.390625 "/></g></g></g><g fill="#000000" fill-opacity="1"><g transform="translate(206.147635, 644.083644)"><g><path d="M 11.890625 -41.078125 L 11.890625 -26.78125 L 37.4375 -26.78125 L 37.4375 -21.1875 L 11.890625 -21.1875 L 11.890625 -5.59375 L 40.046875 -5.59375 L 40.046875 0 L 5.59375 0 L 5.59375 -46.671875 L 39.578125 -46.671875 L 39.578125 -41.078125 Z M 11.890625 -41.078125 "/></g></g></g><g fill="#000000" fill-opacity="1"><g transform="translate(252.747459, 644.083644)"><g><path d="M 24.640625 -42.3125 C 21.597656 -42.3125 18.925781 -41.5625 16.625 -40.0625 C 14.332031 -38.570312 12.546875 -36.425781 11.265625 -33.625 C 9.992188 -30.832031 9.359375 -27.554688 9.359375 -23.796875 C 9.359375 -17.335938 10.664062 -12.484375 13.28125 -9.234375 C 15.90625 -5.984375 19.734375 -4.359375 24.765625 -4.359375 C 28.140625 -4.359375 31.039062 -5.492188 33.46875 -7.765625 C 35.894531 -10.046875 37.457031 -13.175781 38.15625 -17.15625 L 44.265625 -17.15625 C 43.742188 -13.34375 42.550781 -10.050781 40.6875 -7.28125 C 38.820312 -4.507812 36.445312 -2.394531 33.5625 -0.9375 C 30.6875 0.507812 27.492188 1.234375 23.984375 1.234375 C 19.785156 1.234375 16.09375 0.257812 12.90625 -1.6875 C 9.71875 -3.632812 7.242188 -6.472656 5.484375 -10.203125 C 3.734375 -13.929688 2.859375 -18.375 2.859375 -23.53125 C 2.859375 -28.382812 3.742188 -32.648438 5.515625 -36.328125 C 7.296875 -40.015625 9.832031 -42.863281 13.125 -44.875 C 16.414062 -46.894531 20.253906 -47.90625 24.640625 -47.90625 C 28.054688 -47.90625 31.140625 -47.273438 33.890625 -46.015625 C 36.648438 -44.765625 38.894531 -42.988281 40.625 -40.6875 C 42.351562 -38.394531 43.414062 -35.707031 43.8125 -32.625 L 37.703125 -32.625 C 37.046875 -35.75 35.59375 -38.144531 33.34375 -39.8125 C 31.09375 -41.476562 28.191406 -42.3125 24.640625 -42.3125 Z M 24.640625 -42.3125 "/></g></g></g><g fill="#000000" fill-opacity="1"><g transform="translate(302.921856, 644.083644)"><g><path d="M 5.65625 9.5625 L 5.65625 6.5625 C 6.738281 6.519531 7.582031 5.925781 8.1875 4.78125 C 8.789062 3.632812 9.09375 2.039062 9.09375 0 L 5.65625 0 L 5.65625 -6.890625 L 12.421875 -6.890625 L 12.421875 -0.453125 C 12.421875 2.492188 11.8125 4.820312 10.59375 6.53125 C 9.382812 8.238281 7.738281 9.25 5.65625 9.5625 Z M 5.65625 9.5625 "/></g></g></g><g fill="#000000" fill-opacity="1"><g transform="translate(324.239704, 644.083644)"><g/></g></g><g fill="#000000" fill-opacity="1"><g transform="translate(345.557551, 644.083644)"><g><path d="M 23.015625 -41.078125 L 23.015625 0 L 16.703125 0 L 16.703125 -41.078125 L 0.90625 -41.078125 L 0.90625 -46.671875 L 38.8125 -46.671875 L 38.8125 -41.078125 Z M 23.015625 -41.078125 "/></g></g></g><g fill="#000000" fill-opacity="1"><g transform="translate(388.517823, 644.083644)"><g><path d="M 11.890625 -41.078125 L 11.890625 -26.78125 L 37.4375 -26.78125 L 37.4375 -21.1875 L 11.890625 -21.1875 L 11.890625 -5.59375 L 40.046875 -5.59375 L 40.046875 0 L 5.59375 0 L 5.59375 -46.671875 L 39.578125 -46.671875 L 39.578125 -41.078125 Z M 11.890625 -41.078125 "/></g></g></g><g fill="#000000" fill-opacity="1"><g transform="translate(435.117659, 644.083644)"><g><path d="M 34.90625 -5.59375 L 34.90625 0 L 4.9375 0 L 4.9375 -46.671875 L 11.25 -46.671875 L 11.25 -5.59375 Z M 34.90625 -5.59375 "/></g></g></g><g fill="#000000" fill-opacity="1"><g transform="translate(474.503346, 644.083644)"><g><path d="M 34.90625 -5.59375 L 34.90625 0 L 4.9375 0 L 4.9375 -46.671875 L 11.25 -46.671875 L 11.25 -5.59375 Z M 34.90625 -5.59375 "/></g></g></g><g fill="#000000" fill-opacity="1"><g transform="translate(513.889033, 644.083644)"><g><path d="M 35.625 0 L 31 -13.578125 L 12.28125 -13.578125 L 7.40625 0 L 0.90625 0 L 18.453125 -46.671875 L 25.609375 -46.671875 L 42.515625 0 Z M 28.734375 -19.171875 L 21.84375 -39.71875 L 21.703125 -39.71875 L 14.234375 -19.171875 Z M 28.734375 -19.171875 "/></g></g></g><g fill="#000000" fill-opacity="1"><g transform="translate(560.488869, 644.083644)"><g><path d="M 40.4375 -33.546875 C 40.4375 -30.898438 39.878906 -28.523438 38.765625 -26.421875 C 37.660156 -24.316406 36.078125 -22.664062 34.015625 -21.46875 C 31.960938 -20.28125 29.570312 -19.6875 26.84375 -19.6875 L 11.890625 -19.6875 L 11.890625 0 L 5.59375 0 L 5.59375 -46.671875 L 26.84375 -46.671875 C 29.40625 -46.671875 31.722656 -46.117188 33.796875 -45.015625 C 35.878906 -43.910156 37.503906 -42.359375 38.671875 -40.359375 C 39.847656 -38.367188 40.4375 -36.097656 40.4375 -33.546875 Z M 33.9375 -33.46875 C 33.9375 -36.03125 33.164062 -37.972656 31.625 -39.296875 C 30.082031 -40.617188 27.859375 -41.28125 24.953125 -41.28125 L 11.890625 -41.28125 L 11.890625 -25.09375 L 24.703125 -25.09375 C 30.859375 -25.09375 33.9375 -27.882812 33.9375 -33.46875 Z M 33.9375 -33.46875 "/></g></g></g><g fill="#000000" fill-opacity="1"><g transform="translate(607.088705, 644.083644)"><g><path d="M 23.265625 -4.359375 C 27.128906 -4.359375 30.144531 -5.460938 32.3125 -7.671875 C 34.476562 -9.878906 35.5625 -12.957031 35.5625 -16.90625 L 35.5625 -46.671875 L 41.859375 -46.671875 L 41.859375 -16.515625 C 41.859375 -13.046875 41.140625 -9.976562 39.703125 -7.3125 C 38.273438 -4.644531 36.15625 -2.550781 33.34375 -1.03125 C 30.53125 0.476562 27.109375 1.234375 23.078125 1.234375 C 19.304688 1.234375 16.078125 0.519531 13.390625 -0.90625 C 10.703125 -2.34375 8.65625 -4.328125 7.25 -6.859375 C 5.84375 -9.390625 5.140625 -12.300781 5.140625 -15.59375 L 5.140625 -46.671875 L 11.4375 -46.671875 L 11.4375 -17.03125 C 11.4375 -13.039062 12.453125 -9.929688 14.484375 -7.703125 C 16.523438 -5.472656 19.453125 -4.359375 23.265625 -4.359375 Z M 23.265625 -4.359375 "/></g></g></g><g fill="#000000" fill-opacity="1"><g transform="translate(657.263126, 644.083644)"><g><path d="M 42.640625 -34.125 C 42.640625 -31.4375 42.128906 -29.222656 41.109375 -27.484375 C 40.085938 -25.753906 38.429688 -24.238281 36.140625 -22.9375 C 37.609375 -22.375 38.722656 -21.722656 39.484375 -20.984375 C 40.242188 -20.253906 40.796875 -19.226562 41.140625 -17.90625 C 41.492188 -16.582031 41.734375 -14.554688 41.859375 -11.828125 L 42.1875 -4.296875 C 42.226562 -2.898438 42.984375 -1.816406 44.453125 -1.046875 L 44.453125 0 L 36.71875 0 C 36.457031 -0.957031 36.207031 -2.492188 35.96875 -4.609375 C 35.738281 -6.734375 35.625 -9.226562 35.625 -12.09375 C 35.625 -14.945312 34.914062 -16.976562 33.5 -18.1875 C 32.09375 -19.40625 30.09375 -20.015625 27.5 -20.015625 L 12.03125 -20.015625 L 12.03125 0 L 5.71875 0 L 5.71875 -46.671875 L 27.296875 -46.671875 C 32.109375 -46.671875 35.867188 -45.617188 38.578125 -43.515625 C 41.285156 -41.410156 42.640625 -38.28125 42.640625 -34.125 Z M 36.140625 -33.46875 C 36.140625 -38.675781 33.453125 -41.28125 28.078125 -41.28125 L 12.03125 -41.28125 L 12.03125 -25.421875 L 26.90625 -25.421875 C 33.0625 -25.421875 36.140625 -28.101562 36.140625 -33.46875 Z M 36.140625 -33.46875 "/></g></g></g></svg>